Coordinates
version=1
nRows=10
nColumns=27
inDegrees=yes

Units are S.I. units (second, meters, Newtons, ...)
If the header above contains a line with 'inDegrees', this indicates whether rotational values are in degrees (yes) or radians (no).

endheader
time	pelvis_rotation	pelvis_tilt	pelvis_list	pelvis_tx	pelvis_ty	pelvis_tz	hip_flexion_r	hip_adduction_r	hip_rotation_r	knee_angle_r	knee_rotation_r	knee_adduction_r	knee_angle_r_beta	ankle_angle_r	subtalar_angle_r	mtp_angle_r	hip_flexion_l	hip_adduction_l	hip_rotation_l	knee_angle_l	knee_rotation_l	knee_adduction_l	knee_angle_l_beta	ankle_angle_l	subtalar_angle_l	mtp_angle_l
      5.33500000	     12.39665621	    -42.02189330	      7.86543316	     -0.03152833	      0.66931051	     -1.18171083	    101.38991579	    -47.54108014	     -4.69570755	     69.24484767	      0.00000000	      9.53805498	      1.20855058	      3.68946864	      0.00000000	      0.00000000	    101.47621545	    -21.75823967	     -3.58131056	     66.24288258	      0.00000000	     -9.85399406	      1.15615641	      0.43410219	      0.00000000	      0.00000000
      5.34000000	     12.33162826	    -41.92912700	      7.85685961	     -0.03103009	      0.67014134	     -1.18193827	    101.10023913	    -47.51961727	     -4.83025150	     69.06443254	      0.00000000	      9.54190536	      1.20540174	      3.63817520	      0.00000000	      0.00000000	    101.21175718	    -21.78652494	     -3.68303696	     66.12021079	      0.00000000	     -9.85388481	      1.15401538	      0.44337571	      0.00000000	      0.00000000
      5.34500000	     11.50119801	    -42.00467022	      7.79894263	     -0.03114228	      0.67094125	     -1.18176814	    101.37455443	    -46.52080633	     -4.10684275	     68.84758049	      0.00000000	      9.15562219	      1.20161696	      3.52810271	      0.00000000	      0.00000000	    100.89081706	    -22.49313795	     -4.09106539	     65.99591570	      0.00000000	     -9.72863332	      1.15184602	      0.45746822	      0.00000000	      0.00000000
      5.35000000	     12.24230313	    -41.73591605	      7.75520952	     -0.02994925	      0.67172175	     -1.18232233	    100.40063528	    -47.54555356	     -5.27545617	     68.72690136	      0.00000000	      9.54750483	      1.19951071	      3.52352847	      0.00000000	      0.00000000	    100.74583114	    -21.78653651	     -3.74803238	     65.89970942	      0.00000000	     -9.85364097	      1.15016691	      0.47433373	      0.00000000	      0.00000000
      5.35500000	     12.11653228	    -41.65765548	      7.82751446	     -0.02951427	      0.67241223	     -1.18254517	    100.31463183	    -47.43684066	     -5.16772147	     68.59737610	      0.00000000	      9.54914128	      1.19725007	      3.47661721	      0.00000000	      0.00000000	    100.45227951	    -21.88805209	     -3.96490643	     65.79609100	      0.00000000	     -9.85390503	      1.14835842	      0.49405177	      0.00000000	      0.00000000
      5.36000000	     12.07282440	    -41.58014196	      7.80469647	     -0.02902137	      0.67313033	     -1.18272731	    100.03546669	    -47.43066018	     -5.31981018	     68.43688322	      0.00000000	      9.55044099	      1.19444894	      3.40536015	      0.00000000	      0.00000000	    100.23985503	    -21.89522830	     -4.01949069	     65.69722328	      0.00000000	     -9.85384450	      1.14663286	      0.51014306	      0.00000000	      0.00000000
      5.36500000	     12.00725300	    -41.49528407	      7.84132833	     -0.02853962	      0.67380314	     -1.18292375	     99.85907611	    -47.39281101	     -5.33728877	     68.30089267	      0.00000000	      9.55221345	      1.19207546	      3.35293341	      0.00000000	      0.00000000	     99.98142412	    -21.93829840	     -4.16126019	     65.59400477	      0.00000000	     -9.85400234	      1.14483135	      0.51672816	      0.00000000	      0.00000000
      5.37000000	     11.99103699	    -41.38815144	      7.72022655	     -0.02792762	      0.67448814	     -1.18301694	     99.41031914	    -47.44663427	     -5.68633732	     68.16438590	      0.00000000	      9.55610590	      1.18969297	      3.32862946	      0.00000000	      0.00000000	     99.79864631	    -21.90159355	     -4.08071321	     65.50760728	      0.00000000	     -9.85373034	      1.14332343	      0.53897972	      0.00000000	      0.00000000
      5.37500000	     11.32309558	    -41.39312818	      7.60494085	     -0.02784998	      0.67520783	     -1.18281497	     99.45981469	    -46.66425560	     -5.21753757	     67.94822313	      0.00000000	      9.18318017	      1.18592021	      3.24930513	      0.00000000	      0.00000000	     99.49347918	    -22.44642975	     -4.33845259	     65.38986336	      0.00000000	     -9.72722728	      1.14126841	      0.55597525	      0.00000000	      0.00000000
      5.38000000	     11.90681775	    -41.22237849	      7.66984675	     -0.02688902	      0.67575183	     -1.18333047	     98.88185814	    -47.44203377	     -5.96141770	     67.90854443	      0.00000000	      9.55971828	      1.18522769	      3.26041672	      0.00000000	      0.00000000	     99.38620198	    -21.92368583	     -4.17891985	     65.33906028	      0.00000000	     -9.85354089	      1.14038173	      0.58390391	      0.00000000	      0.00000000
